<svg width="59" height="46" viewBox="0 0 59 46" fill="none" xmlns="http://www.w3.org/2000/svg">
<rect x="0.5" y="6.15823" width="35" height="32.9494" rx="8.5" stroke="#E1E1E1"/>
<g clip-path="url(#clip0_1_403)">
<path d="M17.1536 32.0633C15.4312 32.0633 14.0286 30.7415 14.0286 29.1163C14.0286 28.791 14.3086 28.5269 14.6536 28.5269C14.9986 28.5269 15.2786 28.791 15.2786 29.1163C15.2786 30.0916 16.1202 30.8845 17.1536 30.8845C18.1869 30.8845 19.0286 30.0916 19.0286 29.1163C19.0286 28.791 19.3086 28.5269 19.6536 28.5269C19.9986 28.5269 20.2786 28.791 20.2786 29.1163C20.2786 30.7415 18.8761 32.0633 17.1536 32.0633Z" fill="white"/>
<path d="M24.0286 29.7057H10.2786C9.47446 29.7057 8.82031 29.0888 8.82031 28.3305C8.82031 27.928 9.00616 27.547 9.33026 27.2852C9.35117 27.268 9.3736 27.2523 9.39694 27.238C10.6202 26.2313 11.3203 24.783 11.3203 23.2537V21.0611C11.3203 18.0278 13.9378 15.5601 17.1536 15.5601C17.287 15.5601 17.4312 15.5624 17.5645 15.5837C17.9052 15.6371 18.1353 15.9413 18.0786 16.2619C18.022 16.5825 17.6936 16.7995 17.3594 16.746C17.2928 16.7358 17.2195 16.7389 17.1536 16.7389C14.627 16.7389 12.5703 18.6776 12.5703 21.0611V23.2537C12.5703 25.1524 11.6877 26.9489 10.1512 28.1818C10.1387 28.1913 10.1278 28.2 10.1144 28.2086C10.092 28.2354 10.0703 28.2762 10.0703 28.3305C10.0703 28.4373 10.1654 28.5269 10.2786 28.5269H24.0286C24.142 28.5269 24.237 28.4373 24.237 28.3305C24.237 28.2754 24.2154 28.2354 24.192 28.2086C24.1795 28.2 24.1687 28.1913 24.1562 28.1818C22.6187 26.9481 21.737 25.1524 21.737 23.2537V22.3972C21.737 22.0719 22.017 21.8078 22.362 21.8078C22.707 21.8078 22.987 22.0719 22.987 22.3972V23.2537C22.987 24.7839 23.6879 26.2329 24.9128 27.2405C24.9353 27.2546 24.9569 27.2695 24.9769 27.2861C25.3012 27.547 25.487 27.928 25.487 28.3305C25.487 29.0888 24.8329 29.7057 24.0286 29.7057Z" fill="white"/>
<path d="M22.987 21.0611C20.6895 21.0611 18.8203 19.2986 18.8203 17.1319C18.8203 14.9653 20.6895 13.2025 22.987 13.2025C25.2845 13.2025 27.1536 14.9653 27.1536 17.1319C27.1536 19.2986 25.2845 21.0611 22.987 21.0611ZM22.987 14.3813C21.3786 14.3813 20.0703 15.6151 20.0703 17.1319C20.0703 18.6486 21.3786 19.8823 22.987 19.8823C24.5953 19.8823 25.9036 18.6486 25.9036 17.1319C25.9036 15.6151 24.5953 14.3813 22.987 14.3813Z" fill="white"/>
<path d="M23.6976 19.0597H22.8912V16.1285L21.9286 16.41V15.7917L23.6111 15.2233H23.6976V19.0597Z" fill="white"/>
</g>
<line x1="57.75" x2="57.75" y2="45.2658" stroke="#E1E1E1" stroke-width="1.5"/>
<defs>
<clipPath id="clip0_1_403">
<rect width="20" height="18.8608" fill="white" transform="translate(8 13.2025)"/>
</clipPath>
</defs>
</svg>
