<svg width="1439" height="128" viewBox="0 0 1439 128" fill="none" xmlns="http://www.w3.org/2000/svg">
<rect width="1440" height="128" fill="black"/>
<g clip-path="url(#clip0_1_234)">
<path d="M93.0727 43.0791C81.4747 43.0791 72.0723 52.4813 72.0723 64.0792C72.0723 75.6777 81.4747 85.0791 93.0727 85.0791C104.672 85.0791 114.073 75.6777 114.073 64.0792C114.073 52.482 104.672 43.0801 93.0724 43.0801L93.0727 43.0791ZM102.703 73.3673C102.327 73.9842 101.52 74.1798 100.903 73.8011C95.9721 70.7894 89.765 70.1073 82.455 71.7774C81.7506 71.9379 81.0484 71.4966 80.8879 70.7919C80.7267 70.0872 81.1663 69.3851 81.8724 69.2246C89.872 67.3969 96.7339 68.1839 102.269 71.5668C102.886 71.9454 103.082 72.7504 102.703 73.3673ZM105.274 67.6492C104.8 68.4196 103.792 68.6628 103.022 68.1889C97.3769 64.7192 88.7722 63.7144 82.0954 65.7411C81.2295 66.0026 80.3149 65.5146 80.0521 64.6502C79.7913 63.7843 80.2795 62.8715 81.1439 62.6082C88.7707 60.2941 98.2521 61.415 104.735 65.3985C105.504 65.8725 105.748 66.8806 105.274 67.6495V67.6492ZM105.494 61.6949C98.726 57.6748 87.5592 57.3051 81.097 59.2664C80.0593 59.5811 78.962 58.9953 78.6475 57.9576C78.333 56.9194 78.9183 55.8228 79.9568 55.5073C87.3749 53.2554 99.7066 53.6905 107.499 58.3165C108.434 58.8704 108.74 60.0759 108.186 61.008C107.634 61.9414 106.426 62.2491 105.495 61.6949H105.494ZM129.207 62.4653C125.581 61.6006 124.937 60.9937 124.937 59.7186C124.937 58.5139 126.07 57.7031 127.758 57.7031C129.393 57.7031 131.013 58.3187 132.713 59.5861C132.763 59.6245 132.829 59.6398 132.891 59.6298C132.956 59.6203 133.012 59.5854 133.049 59.533L134.82 57.0373C134.892 56.9345 134.872 56.7928 134.774 56.7143C132.751 55.0911 130.474 54.3019 127.811 54.3019C123.896 54.3019 121.16 56.6514 121.16 60.013C121.16 63.6178 123.52 64.8942 127.597 65.8795C131.066 66.6787 131.652 67.3483 131.652 68.545C131.652 69.8716 130.469 70.6966 128.563 70.6966C126.446 70.6966 124.719 69.9819 122.788 68.3118C122.74 68.2691 122.675 68.2516 122.615 68.2541C122.549 68.2591 122.492 68.2892 122.452 68.3368L120.465 70.6991C120.383 70.7994 120.393 70.9449 120.488 71.0301C122.735 73.0363 125.498 74.0945 128.483 74.0945C132.701 74.0945 135.427 71.79 135.427 68.2215C135.434 65.2105 133.631 63.5428 129.215 62.4685L129.207 62.4653ZM144.971 58.8893C143.143 58.8893 141.643 59.6095 140.404 61.0853V59.4242C140.404 59.293 140.299 59.1862 140.169 59.1862H136.921C136.791 59.1862 136.685 59.293 136.685 59.4242V77.8812C136.685 78.0116 136.791 78.1194 136.921 78.1194H140.169C140.299 78.1194 140.404 78.0116 140.404 77.8812V72.0558C141.643 73.4425 143.143 74.1221 144.971 74.1221C148.369 74.1221 151.809 71.5066 151.809 66.5064C151.814 61.5053 148.374 58.889 144.973 58.889L144.971 58.8893ZM148.033 66.5064C148.033 69.0515 146.465 70.8295 144.219 70.8295C141.999 70.8295 140.324 68.9713 140.324 66.5064C140.324 64.0414 141.999 62.1836 144.219 62.1836C146.428 62.1834 148.033 64.001 148.033 66.5062V66.5064ZM160.624 58.8893C156.248 58.8893 152.82 62.2586 152.82 66.5609C152.82 70.817 156.226 74.1497 160.571 74.1497C164.962 74.1497 168.4 70.7919 168.4 66.5064C168.4 62.2356 164.985 58.8898 160.624 58.8898V58.8893ZM160.624 70.8546C158.297 70.8546 156.541 68.9838 156.541 66.5052C156.541 64.0153 158.237 62.2085 160.571 62.2085C162.914 62.2085 164.679 64.0785 164.679 66.5596C164.679 69.049 162.974 70.8546 160.624 70.8546ZM177.744 59.1862H174.171V55.5334C174.171 55.4025 174.065 55.2957 173.935 55.2957H170.688C170.557 55.2957 170.449 55.4025 170.449 55.5334V59.1862H168.889C168.759 59.1862 168.654 59.293 168.654 59.4242V62.2145C168.654 62.3454 168.759 62.4525 168.889 62.4525H170.449V69.6734C170.449 72.5899 171.901 74.0695 174.768 74.0695C175.931 74.0695 176.897 73.8287 177.807 73.3121C177.882 73.272 177.927 73.1918 177.927 73.1065V70.4483C177.927 70.3681 177.885 70.2903 177.814 70.2477C177.744 70.2026 177.656 70.2001 177.584 70.2377C176.959 70.5511 176.355 70.6966 175.678 70.6966C174.637 70.6966 174.171 70.2226 174.171 69.1644V62.4537H177.744C177.875 62.4537 177.98 62.3469 177.98 62.2157V59.4257C177.985 59.2945 177.88 59.1877 177.747 59.1877L177.744 59.1862ZM190.193 59.2005V58.7518C190.193 57.432 190.699 56.8435 191.833 56.8435C192.51 56.8435 193.054 56.9779 193.663 57.181C193.738 57.2046 193.816 57.1928 193.876 57.1479C193.939 57.103 193.974 57.031 193.974 56.9548V54.2189C193.974 54.1143 193.909 54.0218 193.806 53.9909C193.164 53.7996 192.342 53.6032 191.108 53.6032C188.111 53.6032 186.524 55.2919 186.524 58.485V59.1721H184.964C184.834 59.1721 184.726 59.279 184.726 59.4099V62.2145C184.726 62.3454 184.834 62.4525 184.964 62.4525H186.524V73.588C186.524 73.7209 186.632 73.8262 186.762 73.8262H190.007C190.14 73.8262 190.245 73.7209 190.245 73.588V62.4532H193.277L197.921 73.588C197.395 74.7566 196.876 74.9898 196.168 74.9898C195.597 74.9898 194.992 74.8193 194.378 74.4807C194.32 74.4506 194.25 74.4456 194.19 74.4632C194.127 74.4858 194.075 74.5309 194.049 74.5911L192.949 77.006C192.896 77.1214 192.941 77.2543 193.051 77.3145C194.2 77.9364 195.236 78.2022 196.517 78.2022C198.914 78.2022 200.241 77.0837 201.407 74.0795L207.039 59.5255C207.07 59.4522 207.059 59.3695 207.014 59.3045C206.972 59.2401 206.899 59.2012 206.821 59.2012H203.441C203.338 59.2012 203.248 59.2657 203.215 59.3607L199.752 69.2496L195.96 59.3542C195.925 59.2622 195.837 59.2012 195.74 59.2012H190.193V59.2005ZM182.975 59.1862H179.728C179.597 59.1862 179.49 59.293 179.49 59.4242V73.588C179.49 73.7209 179.597 73.8262 179.728 73.8262H182.975C183.106 73.8262 183.214 73.7209 183.214 73.588V59.4252C183.214 59.294 183.108 59.1872 182.975 59.1872V59.1862ZM181.37 52.7366C180.084 52.7366 179.041 53.7778 179.041 55.064C179.041 56.3509 180.084 57.3934 181.37 57.3934C182.657 57.3934 183.698 56.3509 183.698 55.064C183.698 53.778 182.654 52.7366 181.37 52.7366ZM209.813 63.7404C208.529 63.7404 207.528 62.7085 207.528 61.4554C207.528 60.2023 208.542 59.1586 209.826 59.1586C211.109 59.1586 212.11 60.1903 212.11 61.4424C212.11 62.6955 211.097 63.7404 209.813 63.7404ZM209.826 59.3858C208.654 59.3858 207.769 60.3161 207.769 61.4554C207.769 62.5942 208.649 63.512 209.813 63.512C210.984 63.512 211.869 62.5824 211.869 61.4424C211.869 60.3036 210.989 59.3858 209.826 59.3858ZM210.332 61.6773L210.979 62.5821H210.432L209.851 61.7521H209.352V62.5821H208.895V60.1837H209.963C210.523 60.1837 210.889 60.4689 210.889 60.9488C210.891 61.3421 210.663 61.5823 210.335 61.6773H210.332ZM209.946 60.5953H209.352V61.3538H209.946C210.242 61.3538 210.42 61.2086 210.42 60.9742C210.42 60.7274 210.242 60.5953 209.946 60.5953Z" fill="white"/>
</g>
<g clip-path="url(#clip1_1_234)">
<path d="M406.675 72.4264L408.143 68.9949C409.751 70.1853 411.847 70.8154 413.944 70.8154C415.482 70.8154 416.461 70.2204 416.461 69.3102C416.426 66.789 407.199 68.7498 407.129 62.4112C407.094 59.1897 409.96 56.7036 414.015 56.7036C416.426 56.7036 418.838 57.2991 420.55 58.665L419.178 62.1696C417.602 61.1566 415.657 60.4504 413.805 60.4504C412.547 60.4504 411.707 61.0453 411.707 61.8162C411.743 64.3023 421.039 62.9365 421.144 68.9949C421.144 72.2865 418.348 74.5977 414.364 74.5977C411.428 74.5977 408.737 73.8975 406.675 72.4264H406.675ZM465.133 67.7523C464.763 68.4108 464.223 68.9588 463.571 69.3402C462.919 69.7216 462.177 69.9226 461.421 69.9227C459.067 69.9227 457.158 68.01 457.158 65.6507C457.158 63.2914 459.067 61.3786 461.421 61.3786C462.177 61.3787 462.919 61.5797 463.571 61.9611C464.223 62.3425 464.763 62.8905 465.133 63.549L469.215 61.2834C467.686 58.5512 464.77 56.7036 461.421 56.7036C456.49 56.7036 452.492 60.709 452.492 65.6507C452.492 70.5918 456.49 74.5977 461.421 74.5977C464.77 74.5977 467.686 72.7502 469.215 70.0179L465.133 67.7523ZM423.793 74.2473H428.895V49.2558H423.793L423.793 74.2473ZM471.792 49.2558V74.2473H476.894V66.7599L482.94 74.2473H489.463L481.774 65.3524L488.903 57.0525H482.661L476.894 63.953V49.2558H471.792ZM444.616 57.0535V59.085C443.777 57.684 441.715 56.7036 439.548 56.7036C435.075 56.7036 431.545 60.6609 431.545 65.6331C431.545 70.6054 435.075 74.5977 439.548 74.5977C441.715 74.5977 443.777 73.6173 444.616 72.2163V74.2473H449.718V57.0535H444.616ZM444.616 67.7869C443.882 69.0124 442.344 69.9222 440.632 69.9222C438.276 69.9222 436.368 68.01 436.368 65.6507C436.368 63.2914 438.276 61.3786 440.632 61.3786C442.344 61.3786 443.882 62.324 444.616 63.5841V67.7869Z" fill="white"/>
<path d="M379.728 48.7036C378.075 48.7036 376.734 50.0469 376.734 51.7035C376.734 52.0971 376.811 52.4868 376.961 52.8506C377.112 53.2143 377.332 53.5449 377.61 53.8235C377.888 54.1021 378.218 54.3231 378.582 54.4741C378.945 54.6251 379.335 54.703 379.728 54.7034H382.723V51.7035C382.723 50.9086 382.408 50.1461 381.847 49.5835C381.285 49.0209 380.523 48.7044 379.728 48.7036ZM379.728 56.7033H371.744C370.091 56.7033 368.75 58.0466 368.75 59.7037C368.75 61.3603 370.091 62.7036 371.744 62.7036H379.729C381.382 62.7036 382.723 61.3603 382.723 59.7037C382.723 58.0466 381.382 56.7033 379.728 56.7033Z" fill="white"/>
<path d="M398.691 59.7037C398.691 58.0466 397.35 56.7033 395.697 56.7033C394.043 56.7033 392.703 58.0466 392.703 59.7037V62.7036H395.697C396.492 62.7028 397.254 62.3863 397.815 61.8237C398.377 61.2612 398.692 60.4986 398.691 59.7037ZM390.707 59.7037V51.7035C390.708 50.9086 390.393 50.1461 389.831 49.5835C389.269 49.0209 388.507 48.7044 387.713 48.7036C386.059 48.7036 384.719 50.0469 384.719 51.7035V59.7032C384.719 61.3608 386.059 62.7041 387.713 62.7041C388.507 62.7033 389.269 62.3868 389.831 61.8242C390.393 61.2617 390.708 60.4991 390.707 59.7042" fill="white"/>
<path d="M387.713 78.7036C388.507 78.7028 389.27 78.3863 389.831 77.8237C390.393 77.2612 390.708 76.4986 390.707 75.7037C390.708 74.9088 390.393 74.1463 389.831 73.5837C389.27 73.0211 388.507 72.7046 387.713 72.7038H384.719V75.7037C384.719 77.3603 386.059 78.7036 387.713 78.7036ZM387.713 70.7039H395.697C397.35 70.7039 398.691 69.3606 398.691 67.7035C398.692 66.9086 398.377 66.1461 397.815 65.5835C397.254 65.0209 396.492 64.7044 395.697 64.7036H387.713C386.059 64.7036 384.719 66.0469 384.719 67.7035C384.718 68.0971 384.795 68.4868 384.946 68.8506C385.096 69.2143 385.316 69.5449 385.594 69.8235C385.872 70.1021 386.203 70.3231 386.566 70.4741C386.929 70.6251 387.319 70.703 387.713 70.7034" fill="white"/>
<path d="M368.75 67.7035C368.75 68.0971 368.827 68.4868 368.977 68.8506C369.127 69.2143 369.348 69.5449 369.626 69.8235C369.904 70.1021 370.234 70.3231 370.597 70.4741C370.961 70.6251 371.35 70.703 371.744 70.7034C372.539 70.7026 373.301 70.3861 373.862 69.8235C374.424 69.261 374.739 68.4984 374.738 67.7035V64.7036H371.744C370.09 64.7036 368.75 66.0469 368.75 67.7035ZM376.734 67.7035V75.7032C376.734 77.3603 378.074 78.7036 379.728 78.7036C380.523 78.7028 381.285 78.3863 381.846 77.8237C382.408 77.2612 382.723 76.4986 382.722 75.7037V67.7035C382.723 67.3099 382.646 66.9201 382.495 66.5563C382.345 66.1925 382.125 65.8619 381.847 65.5833C381.569 65.3048 381.238 65.0837 380.875 64.9327C380.511 64.7818 380.122 64.7039 379.728 64.7036C378.074 64.7036 376.734 66.0469 376.734 67.7035Z" fill="white"/>
</g>
<g clip-path="url(#clip2_1_234)">
<path d="M661.135 46H646.5V81L661.135 46Z" fill="white"/>
<path d="M671.432 46H686.048V81L671.432 46Z" fill="white"/>
<path d="M666.284 58.8998L675.599 81H669.487L666.703 73.9638H659.886L666.284 58.8998Z" fill="white"/>
<path d="M709.924 68.2577L711.649 73.206C711.706 73.3299 711.792 73.3871 711.945 73.3871H715.263C715.444 73.3871 715.472 73.3013 715.444 73.1202L708.589 54.0804C708.56 53.9279 708.532 53.8993 708.379 53.8993H704.26C704.146 53.8993 704.079 53.9851 704.079 54.109C704.022 55.1101 703.936 55.4152 703.812 55.7108L697.701 73.0916C697.672 73.3013 697.739 73.3871 697.91 73.3871H700.876C701.057 73.3871 701.143 73.3299 701.209 73.1488L702.84 68.2577H709.924ZM703.784 65.0257C704.68 62.318 705.862 58.8475 706.339 56.8644H706.367C706.958 58.9428 708.35 63.0616 708.98 65.0257H703.784Z" fill="white"/>
<path d="M724.257 73.6827C726.04 73.6827 727.937 73.3585 729.863 72.5291C730.015 72.4719 730.044 72.4051 730.044 72.2621C729.987 71.7282 729.92 70.9559 729.92 70.3648V52.4405C729.92 52.3261 729.92 52.2689 729.777 52.2689H726.545C726.421 52.2689 726.364 52.3261 726.364 52.4787V58.552C725.858 58.4947 725.506 58.4661 725.086 58.4661C719.871 58.4661 716.667 61.908 716.667 66.2079C716.667 71.1943 719.957 73.6827 724.257 73.6827ZM726.364 70.3648C725.83 70.5364 725.239 70.6032 724.638 70.6032C722.274 70.6032 720.338 69.2684 720.338 66.0268C720.338 63.157 722.331 61.4599 724.972 61.4599C725.506 61.4599 725.973 61.5171 726.364 61.6696V70.3648Z" fill="white"/>
<path d="M740.355 58.4661C735.902 58.4661 733.147 61.8794 733.147 66.0935C733.147 69.8595 735.34 73.6827 740.288 73.6827C744.474 73.6827 747.41 70.6031 747.41 65.9981C747.41 61.9366 744.922 58.4661 740.355 58.4661ZM740.174 61.4599C742.691 61.4599 743.759 63.6241 743.759 66.0935C743.759 69.1444 742.185 70.6604 740.355 70.6604C738.095 70.6604 736.76 68.7631 736.76 66.0267C736.76 63.2142 738.181 61.4599 740.174 61.4599Z" fill="white"/>
<path d="M750.752 52.2689C750.628 52.2689 750.542 52.3261 750.542 52.4787V72.7674C750.542 72.8532 750.628 73.0058 750.752 73.0344C752.172 73.4729 753.66 73.6827 755.195 73.6827C759.59 73.6827 763.861 70.9559 763.861 65.4642C763.861 61.4885 761.134 58.4661 756.863 58.4661C755.881 58.4661 754.966 58.6187 754.165 58.8856L754.127 52.5073C754.127 52.2975 754.07 52.2689 753.86 52.2689H750.752ZM760.21 65.8265C760.21 69.1158 757.96 70.6604 755.528 70.6604C755.023 70.6604 754.575 70.6318 754.165 70.5078V61.8508C754.632 61.6696 755.195 61.5171 756.234 61.5171C758.579 61.5171 760.21 63.0044 760.21 65.8265Z" fill="white"/>
<path d="M775.923 66.8943C777.372 66.8943 778.564 66.8657 778.974 66.7704C779.127 66.7418 779.184 66.6846 779.213 66.5607C779.298 66.2365 779.337 65.5596 779.337 64.7301C779.337 61.908 777.639 58.4661 773.254 58.4661C768.773 58.4661 766.284 62.1177 766.284 66.2365C766.284 69.8881 768.21 73.6827 773.606 73.6827C775.628 73.6827 776.934 73.3585 778.059 72.8246C778.173 72.7674 778.231 72.6721 778.231 72.5005V70.0311C778.231 69.8881 778.145 69.8595 778.059 69.9167C776.934 70.3934 775.714 70.6318 774.379 70.6318C771.356 70.6318 769.984 68.9633 769.898 66.8943H775.923ZM769.898 64.3392C770.136 62.89 771.051 61.3168 773.101 61.3168C775.361 61.3168 775.952 63.2142 775.952 64.0722C775.952 64.1008 775.952 64.2248 775.952 64.3106C775.828 64.3392 775.447 64.3392 774.322 64.3392H769.898Z" fill="white"/>
</g>
<g clip-path="url(#clip3_1_234)">
<path fill-rule="evenodd" clip-rule="evenodd" d="M1059.21 71.9803C1059.28 72.8499 1059.98 73.9567 1061.18 73.9567H1061.89C1062.16 73.9567 1062.39 73.7327 1062.39 73.4592V57.9535H1062.38C1062.37 57.6922 1062.15 57.483 1061.89 57.483H1059.7C1059.44 57.483 1059.22 57.6922 1059.21 57.9535H1059.21V59.2134C1057.87 57.5635 1055.76 56.8787 1053.64 56.8787C1048.83 56.8787 1044.93 60.7811 1044.93 65.5953C1044.93 70.4099 1048.83 74.3124 1053.64 74.3124C1055.76 74.3124 1058.06 73.4911 1059.21 71.9784V71.9803ZM1053.65 71.2617C1050.59 71.2617 1048.11 68.725 1048.11 65.5953C1048.11 62.4663 1050.59 59.9295 1053.65 59.9295C1056.71 59.9295 1059.19 62.4663 1059.19 65.5953C1059.19 68.725 1056.71 71.2617 1053.65 71.2617Z" fill="white"/>
<path fill-rule="evenodd" clip-rule="evenodd" d="M1042.17 64.49C1042.17 59.9672 1039.32 56.916 1034.77 56.916C1032.6 56.916 1030.82 58.172 1030.19 59.2509C1030.06 58.4073 1029.61 57.5205 1028.22 57.5205H1027.52C1027.24 57.5205 1027.02 57.7447 1027.02 58.0182V72.0191C1027.02 72.0196 1027.02 72.0206 1027.02 72.0213V73.5252H1027.02C1027.04 73.786 1027.25 73.9955 1027.52 73.9955H1029.7C1029.73 73.9955 1029.77 73.9915 1029.8 73.9854C1029.81 73.9825 1029.83 73.9768 1029.84 73.9729C1029.86 73.9679 1029.87 73.964 1029.89 73.9576C1029.91 73.9496 1029.93 73.9388 1029.94 73.9287C1029.95 73.9232 1029.96 73.9194 1029.97 73.9138C1029.99 73.8997 1030.01 73.8827 1030.03 73.8655C1030.04 73.8623 1030.04 73.8601 1030.04 73.8572C1030.06 73.8362 1030.08 73.813 1030.1 73.7889C1030.16 73.7138 1030.19 73.6229 1030.19 73.5252H1030.2V64.3656C1030.2 61.9365 1032.17 59.9672 1034.59 59.9672C1037.02 59.9672 1038.99 61.9365 1038.99 64.3656L1038.99 72.0218L1038.99 72.0191C1038.99 72.0259 1038.99 72.0329 1038.99 72.0401V73.5252H1038.99C1039.01 73.786 1039.22 73.9955 1039.49 73.9955H1041.67C1041.71 73.9955 1041.74 73.9915 1041.77 73.9854C1041.78 73.983 1041.8 73.9777 1041.81 73.9742C1041.83 73.969 1041.85 73.9646 1041.86 73.9576C1041.88 73.9502 1041.9 73.9399 1041.91 73.9304C1041.92 73.9246 1041.93 73.9204 1041.94 73.9138C1041.96 73.9005 1041.98 73.8844 1042 73.8687C1042.01 73.8643 1042.01 73.8612 1042.02 73.8568C1042.04 73.8368 1042.05 73.8152 1042.07 73.7926C1042.07 73.7909 1042.07 73.7896 1042.08 73.7879C1042.13 73.7134 1042.16 73.6235 1042.17 73.5265C1042.17 73.5258 1042.17 73.5252 1042.17 73.5252H1042.17L1042.17 64.49Z" fill="white"/>
<path fill-rule="evenodd" clip-rule="evenodd" d="M1019.42 71.9803C1019.49 72.8498 1020.19 73.9566 1021.39 73.9566H1022.1C1022.37 73.9566 1022.6 73.7327 1022.6 73.4591V57.9535H1022.59C1022.58 57.6922 1022.36 57.483 1022.1 57.483H1019.92C1019.65 57.483 1019.44 57.6922 1019.42 57.9535H1019.42V59.2134C1018.08 57.5635 1015.97 56.8787 1013.85 56.8787C1009.04 56.8787 1005.14 60.7811 1005.14 65.5954C1005.14 70.4098 1009.04 74.3124 1013.85 74.3124C1015.97 74.3124 1018.28 73.4912 1019.42 71.9783L1019.42 71.9803ZM1013.86 71.2616C1010.8 71.2616 1008.32 68.725 1008.32 65.5954C1008.32 62.4663 1010.8 59.9295 1013.86 59.9295C1016.92 59.9295 1019.4 62.4663 1019.4 65.5954C1019.4 68.725 1016.92 71.2616 1013.86 71.2616Z" fill="white"/>
<path fill-rule="evenodd" clip-rule="evenodd" d="M992.224 69.7596C993.682 70.7707 995.274 71.2618 996.804 71.2618C998.261 71.2618 999.768 70.5057 999.768 69.1896C999.768 67.4325 996.485 67.1591 994.422 66.4575C992.359 65.7559 990.582 64.3055 990.582 61.9568C990.582 58.3628 993.782 56.8784 996.769 56.8784C998.661 56.8784 1000.61 57.5029 1001.88 58.3975C1002.32 58.728 1002.05 59.1075 1002.05 59.1075L1000.84 60.8346C1000.71 61.0291 1000.47 61.1972 1000.13 60.9866C999.786 60.7762 998.591 59.9293 996.769 59.9293C994.946 59.9293 993.849 60.7715 993.849 61.8153C993.849 63.067 995.275 63.4607 996.946 63.8874C999.858 64.6729 1003.03 65.6171 1003.03 69.1896C1003.03 72.3561 1000.08 74.3131 996.804 74.3131C994.325 74.3131 992.215 73.6059 990.445 72.306C990.076 71.9367 990.334 71.5938 990.334 71.5938L991.536 69.8755C991.781 69.5542 992.089 69.6663 992.224 69.7596Z" fill="white"/>
<path fill-rule="evenodd" clip-rule="evenodd" d="M983.825 71.9803C983.902 72.8498 984.597 73.9566 985.802 73.9566H986.507C986.78 73.9566 987.004 73.7327 987.004 73.4591V57.9535H987.001C986.987 57.6922 986.771 57.483 986.507 57.483H984.322C984.058 57.483 983.842 57.6922 983.828 57.9535H983.825V59.2134C982.487 57.5635 980.376 56.8787 978.26 56.8787C973.45 56.8787 969.55 60.7811 969.55 65.5954C969.55 70.4098 973.45 74.3124 978.26 74.3124C980.376 74.3124 982.683 73.4912 983.825 71.9783L983.825 71.9803ZM978.269 71.2616C975.209 71.2616 972.729 68.725 972.729 65.5954C972.729 62.4663 975.209 59.9295 978.269 59.9295C981.328 59.9295 983.808 62.4663 983.808 65.5954C983.808 68.725 981.328 71.2616 978.269 71.2616Z" fill="white"/>
<path fill-rule="evenodd" clip-rule="evenodd" d="M957.34 66.1881C954.103 66.1881 951.478 68.8123 951.478 72.0497C951.478 75.2868 954.103 77.911 957.34 77.911C960.577 77.911 963.201 75.2868 963.201 72.0497C963.201 68.8123 960.577 66.1881 957.34 66.1881ZM942.111 66.1886C938.874 66.1886 936.25 68.8123 936.25 72.0497C936.25 75.2868 938.874 77.911 942.111 77.911C945.349 77.911 947.973 75.2868 947.973 72.0497C947.973 68.8123 945.349 66.1886 942.111 66.1886ZM955.587 58.8612C955.587 62.0986 952.963 64.7231 949.725 64.7231C946.488 64.7231 943.864 62.0986 943.864 58.8612C943.864 55.6245 946.488 53 949.725 53C952.963 53 955.587 55.6245 955.587 58.8612Z" fill="white"/>
</g>
<path d="M1220.24 66.2057L1235.79 81.7607C1227.85 80.418 1221.58 74.1491 1220.24 66.2057Z" fill="white"/>
<path d="M1220 61.9828L1240.02 82C1241.21 81.9364 1242.37 81.7633 1243.49 81.4906L1220.51 58.5086C1220.24 59.631 1220.06 60.7923 1220 61.9828Z" fill="white"/>
<path d="M1221.51 55.5212L1246.48 80.4943C1247.39 80.1039 1248.26 79.6446 1249.09 79.123L1222.88 52.9088C1222.36 53.7386 1221.9 54.6116 1221.51 55.5212Z" fill="white"/>
<path d="M1224.57 50.6172C1228.06 46.5656 1233.22 44 1238.99 44C1249.49 44 1258 52.5127 1258 63.0137C1258 68.7786 1255.43 73.9442 1251.38 77.4311L1224.57 50.6172Z" fill="white"/>
<path d="M1277.81 74.3999H1291.74V70.6061H1282.41V52.6363H1277.81V74.3999ZM1294.7 74.3999H1299.23V58.0772H1294.7V74.3999ZM1296.98 56.1431C1298.3 56.1431 1299.43 55.1442 1299.43 53.8477C1299.43 52.5619 1298.3 51.563 1296.98 51.563C1295.67 51.563 1294.53 52.5619 1294.53 53.8477C1294.53 55.1442 1295.67 56.1431 1296.98 56.1431ZM1307.38 64.9633C1307.39 62.8593 1308.65 61.6265 1310.48 61.6265C1312.29 61.6265 1313.39 62.8167 1313.38 64.8146V74.3999H1317.9V64.0069C1317.9 60.2026 1315.67 57.8647 1312.27 57.8647C1309.85 57.8647 1308.1 59.0549 1307.36 60.9571H1307.17V58.0772H1302.86V74.3999H1307.38V64.9633ZM1328.95 74.7188C1333 74.7188 1335.71 72.7527 1336.35 69.7241L1332.17 69.4478C1331.72 70.6912 1330.54 71.3394 1329.04 71.3394C1326.78 71.3394 1325.34 69.841 1325.34 67.4075V67.3969H1336.46V66.1535C1336.46 60.6064 1333.1 57.8647 1328.78 57.8647C1323.98 57.8647 1320.87 61.2759 1320.87 66.313C1320.87 71.4882 1323.94 74.7188 1328.95 74.7188ZM1325.34 64.5914C1325.43 62.7317 1326.85 61.244 1328.86 61.244C1330.81 61.244 1332.17 62.6467 1332.2 64.5914H1325.34ZM1344.13 74.7082C1346.54 74.7082 1348.1 73.6561 1348.9 72.1364H1349.03V74.3999H1353.32V63.3906C1353.32 59.5012 1350 57.8647 1346.47 57.8647C1342.45 57.8647 1339.91 59.735 1339.28 62.7105L1343.47 63.0505C1343.78 61.9666 1344.75 61.1696 1346.37 61.1696C1347.93 61.1696 1348.78 61.9347 1348.79 63.3056C1348.8 64.3789 1347.68 64.5383 1344.84 64.8146C1341.61 65.1121 1338.71 66.1961 1338.71 69.841C1338.71 73.0716 1341.02 74.7082 1344.13 74.7082ZM1345.43 71.5838C1344.03 71.5838 1343.03 70.9356 1343.03 69.6922C1343.03 68.4171 1344.09 67.79 1345.68 67.5669C1346.67 67.4288 1348.28 67.195 1348.83 66.8337V68.5659C1348.83 70.2768 1347.41 71.5838 1345.43 71.5838ZM1356.83 74.3999H1361.36V65.1653C1361.37 63.1674 1362.82 61.7966 1364.64 61.7966C1365.26 61.7966 1365.76 61.9666 1366.18 62.1791L1367.55 58.4385C1366.95 58.0772 1366.18 57.8434 1365.31 57.8434C1363.48 57.8434 1361.99 58.9061 1361.39 60.9252H1361.22V58.0772H1356.83V74.3999Z" fill="white"/>
<defs>
<clipPath id="clip0_1_234">
<rect width="140" height="48" fill="white" transform="translate(72 40)"/>
</clipPath>
<clipPath id="clip1_1_234">
<rect width="121" height="48" fill="white" transform="translate(368.75 40)"/>
</clipPath>
<clipPath id="clip2_1_234">
<rect width="133" height="48" fill="white" transform="translate(646.5 40)"/>
</clipPath>
<clipPath id="clip3_1_234">
<rect width="127" height="48" fill="white" transform="translate(936.25 40)"/>
</clipPath>
</defs>
</svg>
