<svg width="28" height="28" viewBox="0 0 28 28" fill="none" xmlns="http://www.w3.org/2000/svg">
<g clip-path="url(#clip0_1_1092)">
<path d="M25.6674 19.7401V23.2401C25.6687 23.565 25.6022 23.8866 25.472 24.1843C25.3418 24.482 25.1509 24.7493 24.9115 24.9689C24.6721 25.1886 24.3894 25.3558 24.0816 25.4599C23.7738 25.564 23.4477 25.6027 23.1241 25.5734C19.534 25.1833 16.0856 23.9566 13.0557 21.9918C10.2369 20.2005 7.84696 17.8106 6.05574 14.9918C4.08404 11.9482 2.85702 8.48292 2.47407 4.87676C2.44491 4.55414 2.48326 4.22898 2.58665 3.92199C2.69005 3.615 2.85624 3.3329 3.07463 3.09365C3.29302 2.8544 3.55884 2.66325 3.85516 2.53237C4.15148 2.40148 4.4718 2.33373 4.79574 2.33343H8.29574C8.86193 2.32785 9.41083 2.52835 9.84012 2.89755C10.2694 3.26674 10.5498 3.77945 10.6291 4.34009C10.7768 5.46017 11.0508 6.55994 11.4457 7.61843C11.6027 8.036 11.6367 8.48983 11.5436 8.92612C11.4506 9.36241 11.2344 9.76289 10.9207 10.0801L9.43907 11.5618C11.0999 14.4826 13.5183 16.9009 16.4391 18.5618L17.9207 17.0801C18.2379 16.7664 18.6384 16.5502 19.0747 16.4572C19.511 16.3642 19.9648 16.3981 20.3824 16.5551C21.4409 16.9501 22.5407 17.224 23.6607 17.3718C24.2275 17.4517 24.745 17.7372 25.115 18.1738C25.485 18.6105 25.6816 19.1679 25.6674 19.7401Z" stroke="#309689" stroke-width="3" stroke-linecap="round" stroke-linejoin="round"/>
</g>
<defs>
<clipPath id="clip0_1_1092">
<rect width="28" height="28" fill="white"/>
</clipPath>
</defs>
</svg>
