<svg width="600" height="60" viewBox="0 0 600 60" fill="none" xmlns="http://www.w3.org/2000/svg">
<rect width="60" height="60" rx="30" fill="#309689"/>
<g clip-path="url(#clip0_1_151)">
<path d="M23.6562 22.6719V20.2368C23.6562 19.2676 24.4492 18.4746 25.4184 18.4746H34.5816C35.5508 18.4746 36.3438 19.2676 36.3438 20.2368V22.6719" stroke="white" stroke-width="2" stroke-miterlimit="22.9256" stroke-linecap="round" stroke-linejoin="round"/>
<path d="M42.0859 30.5469V39.8848C42.0859 40.7869 41.3475 41.5254 40.4453 41.5254H19.5547C18.6525 41.5254 17.9141 40.7871 17.9141 39.8848V30.6016" stroke="white" stroke-width="2" stroke-miterlimit="22.9256" stroke-linecap="round" stroke-linejoin="round"/>
<path d="M27.8125 33.3086C22.0272 32.9778 16.8203 31.3234 16.8203 28.3455V24.4629C16.8203 23.5593 17.5573 22.8223 18.4609 22.8223H41.5391C42.4427 22.8223 43.1797 23.5593 43.1797 24.4629V28.3455C43.1797 31.3421 37.907 32.9985 32.0781 33.3147" stroke="white" stroke-width="2" stroke-miterlimit="22.9256" stroke-linecap="round" stroke-linejoin="round"/>
<path fill-rule="evenodd" clip-rule="evenodd" d="M27.9766 31.6816H32.0234V33.5684C32.0234 34.6061 31.1744 35.4551 30.1367 35.4551H29.8633C28.8256 35.4551 27.9766 34.6061 27.9766 33.5684V31.6816Z" stroke="white" stroke-width="2" stroke-miterlimit="22.9256" stroke-linecap="round" stroke-linejoin="round"/>
</g>
<path d="M75.7 24.92L73.02 23.48C73.02 23.0933 73.14 22.6667 73.38 22.2C73.62 21.7333 73.9533 21.2667 74.38 20.8C74.8067 20.3333 75.3067 19.9 75.88 19.5L78 17.98C78.2933 17.78 78.5667 17.5533 78.82 17.3C79.0867 17.0467 79.3 16.7733 79.46 16.48C79.6333 16.1733 79.72 15.88 79.72 15.6C79.72 15.2533 79.6333 14.94 79.46 14.66C79.3 14.38 79.06 14.16 78.74 14C78.42 13.84 78.0267 13.76 77.56 13.76C77.16 13.76 76.8 13.84 76.48 14C76.1733 14.16 75.92 14.3733 75.72 14.64C75.52 14.9067 75.38 15.1933 75.3 15.5L72.48 15.02C72.6133 14.3533 72.9 13.7333 73.34 13.16C73.78 12.5867 74.3533 12.1267 75.06 11.78C75.78 11.42 76.5933 11.24 77.5 11.24C78.54 11.24 79.4333 11.4267 80.18 11.8C80.9267 12.1733 81.5 12.6867 81.9 13.34C82.3133 13.98 82.52 14.7267 82.52 15.58C82.52 16.4467 82.28 17.22 81.8 17.9C81.3333 18.5667 80.6867 19.1933 79.86 19.78L77.96 21.16C77.5733 21.4133 77.2067 21.72 76.86 22.08C76.5133 22.4267 76.2333 22.8333 76.02 23.3C75.8067 23.7533 75.7 24.2933 75.7 24.92ZM73.02 25.5V23.48L75.06 23.1H82.7V25.5H73.02ZM89.442 25.74C88.802 25.74 88.142 25.6333 87.462 25.42C86.7954 25.2067 86.1887 24.8867 85.642 24.46C85.1087 24.0333 84.7154 23.5067 84.462 22.88L86.962 22.14C87.2554 22.5667 87.602 22.88 88.002 23.08C88.4154 23.28 88.842 23.38 89.282 23.38C89.9754 23.38 90.5354 23.1733 90.962 22.76C91.402 22.3333 91.622 21.7667 91.622 21.06C91.622 20.4067 91.4087 19.86 90.982 19.42C90.5687 18.98 90.0154 18.76 89.322 18.76C88.9087 18.76 88.5287 18.8533 88.182 19.04C87.8354 19.2267 87.5687 19.4467 87.382 19.7L84.922 19.16L85.762 11.5H93.682V13.98H86.162L85.762 11.58H88.482L87.382 19.42L85.922 19.16C86.042 18.92 86.2287 18.66 86.482 18.38C86.7354 18.0867 87.0487 17.8067 87.422 17.54C87.8087 17.2733 88.242 17.06 88.722 16.9C89.202 16.74 89.7354 16.6667 90.322 16.68C91.082 16.68 91.7754 16.8667 92.402 17.24C93.0287 17.6 93.522 18.1 93.882 18.74C94.2554 19.3667 94.442 20.1 94.442 20.94C94.442 21.8867 94.2287 22.72 93.802 23.44C93.3754 24.16 92.7887 24.7267 92.042 25.14C91.2954 25.54 90.4287 25.74 89.442 25.74ZM95.7831 27.78L97.0031 23.06H99.7431L97.7831 27.78H95.7831ZM106.44 25.74C105.32 25.74 104.367 25.58 103.58 25.26C102.793 24.9267 102.193 24.4733 101.78 23.9C101.38 23.3133 101.18 22.6333 101.18 21.86C101.18 21.0333 101.38 20.3067 101.78 19.68C102.193 19.0533 102.793 18.56 103.58 18.2C104.367 17.84 105.32 17.6667 106.44 17.68C107.573 17.6667 108.533 17.84 109.32 18.2C110.107 18.56 110.707 19.0533 111.12 19.68C111.533 20.3067 111.74 21.0333 111.74 21.86C111.74 22.6333 111.533 23.3133 111.12 23.9C110.707 24.4733 110.107 24.9267 109.32 25.26C108.533 25.58 107.573 25.74 106.44 25.74ZM106.44 23.46C107.173 23.46 107.773 23.28 108.24 22.92C108.707 22.5467 108.94 22.0733 108.94 21.5C108.94 20.8733 108.707 20.3667 108.24 19.98C107.773 19.5933 107.173 19.4 106.44 19.4C105.96 19.4 105.533 19.4867 105.16 19.66C104.8 19.8333 104.513 20.08 104.3 20.4C104.087 20.72 103.98 21.0867 103.98 21.5C103.98 21.8867 104.087 22.2267 104.3 22.52C104.513 22.8133 104.8 23.0467 105.16 23.22C105.533 23.38 105.96 23.46 106.44 23.46ZM106.44 18.76C105.44 18.76 104.58 18.6067 103.86 18.3C103.14 17.98 102.587 17.5467 102.2 17C101.827 16.44 101.64 15.7933 101.64 15.06C101.64 14.3133 101.827 13.6533 102.2 13.08C102.587 12.5067 103.14 12.06 103.86 11.74C104.58 11.42 105.44 11.26 106.44 11.26C107.453 11.26 108.32 11.42 109.04 11.74C109.76 12.06 110.313 12.5067 110.7 13.08C111.087 13.6533 111.28 14.3133 111.28 15.06C111.28 15.7933 111.087 16.44 110.7 17C110.313 17.5467 109.76 17.98 109.04 18.3C108.32 18.6067 107.453 18.76 106.44 18.76ZM106.44 17.22C107.08 17.22 107.6 17.0467 108 16.7C108.413 16.3533 108.62 15.9133 108.62 15.38C108.62 14.8067 108.413 14.3467 108 14C107.6 13.64 107.08 13.46 106.44 13.46C105.813 13.46 105.3 13.64 104.9 14C104.5 14.3467 104.3 14.8067 104.3 15.38C104.3 15.9133 104.5 16.3533 104.9 16.7C105.3 17.0467 105.813 17.22 106.44 17.22ZM118.446 25.74C117.806 25.74 117.146 25.6333 116.466 25.42C115.799 25.2067 115.193 24.8867 114.646 24.46C114.113 24.0333 113.719 23.5067 113.466 22.88L115.966 22.14C116.259 22.5667 116.606 22.88 117.006 23.08C117.419 23.28 117.846 23.38 118.286 23.38C118.979 23.38 119.539 23.1733 119.966 22.76C120.406 22.3333 120.626 21.7667 120.626 21.06C120.626 20.4067 120.413 19.86 119.986 19.42C119.573 18.98 119.019 18.76 118.326 18.76C117.913 18.76 117.533 18.8533 117.186 19.04C116.839 19.2267 116.573 19.4467 116.386 19.7L113.926 19.16L114.766 11.5H122.686V13.98H115.166L114.766 11.58H117.486L116.386 19.42L114.926 19.16C115.046 18.92 115.233 18.66 115.486 18.38C115.739 18.0867 116.053 17.8067 116.426 17.54C116.813 17.2733 117.246 17.06 117.726 16.9C118.206 16.74 118.739 16.6667 119.326 16.68C120.086 16.68 120.779 16.8667 121.406 17.24C122.033 17.6 122.526 18.1 122.886 18.74C123.259 19.3667 123.446 20.1 123.446 20.94C123.446 21.8867 123.233 22.72 122.806 23.44C122.379 24.16 121.793 24.7267 121.046 25.14C120.299 25.54 119.433 25.74 118.446 25.74ZM130.687 25.74C129.554 25.74 128.554 25.4333 127.687 24.82C126.82 24.1933 126.14 23.34 125.647 22.26C125.154 21.1667 124.907 19.9133 124.907 18.5C124.907 17.0867 125.154 15.84 125.647 14.76C126.14 13.6667 126.814 12.8133 127.667 12.2C128.534 11.5733 129.534 11.26 130.667 11.26C131.8 11.26 132.8 11.5733 133.667 12.2C134.547 12.8133 135.234 13.6667 135.727 14.76C136.22 15.84 136.467 17.0867 136.467 18.5C136.467 19.9133 136.22 21.1667 135.727 22.26C135.234 23.34 134.554 24.1933 133.687 24.82C132.82 25.4333 131.82 25.74 130.687 25.74ZM130.687 23.26C131.287 23.26 131.82 23.06 132.287 22.66C132.767 22.2467 133.14 21.6867 133.407 20.98C133.674 20.26 133.807 19.4333 133.807 18.5C133.807 17.5667 133.674 16.74 133.407 16.02C133.14 15.3 132.767 14.74 132.287 14.34C131.82 13.9267 131.28 13.72 130.667 13.72C130.067 13.72 129.534 13.9267 129.067 14.34C128.6 14.74 128.234 15.3 127.967 16.02C127.714 16.74 127.587 17.5667 127.587 18.5C127.587 19.4333 127.714 20.26 127.967 20.98C128.234 21.6867 128.6 22.2467 129.067 22.66C129.547 23.06 130.087 23.26 130.687 23.26Z" fill="white"/>
<path d="M75.152 48.692C74.768 48.692 74.4107 48.6333 74.08 48.516C73.76 48.4093 73.472 48.2653 73.216 48.084C72.96 47.892 72.7413 47.6787 72.56 47.444C72.3787 47.1987 72.2293 46.948 72.112 46.692L73.136 46.1C73.36 46.4947 73.632 46.82 73.952 47.076C74.2827 47.332 74.688 47.46 75.168 47.46C75.552 47.46 75.9253 47.3693 76.288 47.188C76.6613 47.0067 76.9653 46.7027 77.2 46.276C77.4347 45.8493 77.552 45.2893 77.552 44.596V37.3H78.896V45.124C78.896 45.7107 78.7893 46.228 78.576 46.676C78.3733 47.124 78.0907 47.4973 77.728 47.796C77.376 48.0947 76.976 48.3187 76.528 48.468C76.08 48.6173 75.6213 48.692 75.152 48.692ZM84.8904 48.692C84.1117 48.692 83.4184 48.516 82.8104 48.164C82.213 47.8013 81.7437 47.3053 81.4024 46.676C81.061 46.0467 80.8904 45.3213 80.8904 44.5C80.8904 43.6787 81.0557 42.9533 81.3864 42.324C81.7277 41.6947 82.197 41.204 82.7944 40.852C83.4024 40.4893 84.0904 40.308 84.8584 40.308C85.6477 40.308 86.341 40.4893 86.9384 40.852C87.5464 41.204 88.0157 41.6947 88.3464 42.324C88.6877 42.9533 88.8584 43.6787 88.8584 44.5C88.8584 45.3213 88.6877 46.0467 88.3464 46.676C88.0157 47.3053 87.5517 47.8013 86.9544 48.164C86.357 48.516 85.669 48.692 84.8904 48.692ZM84.8904 47.508C85.4237 47.508 85.8877 47.38 86.2824 47.124C86.677 46.868 86.9864 46.516 87.2104 46.068C87.445 45.62 87.5624 45.0973 87.5624 44.5C87.5624 43.9027 87.445 43.38 87.2104 42.932C86.9864 42.484 86.6717 42.132 86.2664 41.876C85.861 41.62 85.3917 41.492 84.8584 41.492C84.3357 41.492 83.8717 41.62 83.4664 41.876C83.0717 42.132 82.757 42.484 82.5224 42.932C82.2984 43.38 82.1864 43.9027 82.1864 44.5C82.1864 45.0867 82.2984 45.6093 82.5224 46.068C82.757 46.516 83.077 46.868 83.4824 47.124C83.8984 47.38 84.3677 47.508 84.8904 47.508ZM90.6356 48.5V37.3H91.9156V47.012L91.8516 48.5H90.6356ZM94.6196 48.692C93.9476 48.692 93.3556 48.516 92.8436 48.164C92.3423 47.812 91.953 47.3213 91.6756 46.692C91.3983 46.052 91.2596 45.3213 91.2596 44.5C91.2596 43.668 91.3983 42.9373 91.6756 42.308C91.953 41.6787 92.3423 41.188 92.8436 40.836C93.3556 40.484 93.9476 40.308 94.6196 40.308C95.3343 40.308 95.9636 40.484 96.5076 40.836C97.0516 41.188 97.473 41.6787 97.7716 42.308C98.081 42.9373 98.2356 43.668 98.2356 44.5C98.2356 45.3213 98.081 46.052 97.7716 46.692C97.473 47.3213 97.0516 47.812 96.5076 48.164C95.9636 48.516 95.3343 48.692 94.6196 48.692ZM94.3316 47.524C94.833 47.524 95.2756 47.396 95.6596 47.14C96.0543 46.884 96.3636 46.5267 96.5876 46.068C96.8223 45.6093 96.9396 45.0867 96.9396 44.5C96.9396 43.9133 96.8276 43.3907 96.6036 42.932C96.3903 42.4733 96.0863 42.116 95.6916 41.86C95.297 41.604 94.849 41.476 94.3476 41.476C93.8783 41.476 93.457 41.604 93.0836 41.86C92.721 42.116 92.433 42.4733 92.2196 42.932C92.017 43.3907 91.9156 43.9133 91.9156 44.5C91.9156 45.0867 92.017 45.6093 92.2196 46.068C92.433 46.5267 92.721 46.884 93.0836 47.14C93.4463 47.396 93.8623 47.524 94.3316 47.524ZM102.811 48.692C102.224 48.692 101.712 48.6067 101.275 48.436C100.837 48.2547 100.469 48.02 100.171 47.732C99.8826 47.444 99.6746 47.1293 99.5466 46.788L100.667 46.324C100.848 46.6867 101.12 46.98 101.483 47.204C101.845 47.428 102.245 47.54 102.683 47.54C103.184 47.54 103.605 47.444 103.947 47.252C104.288 47.0493 104.459 46.7667 104.459 46.404C104.459 46.0733 104.331 45.8067 104.075 45.604C103.829 45.4013 103.461 45.236 102.971 45.108L102.203 44.9C101.477 44.708 100.912 44.42 100.507 44.036C100.101 43.6413 99.8986 43.1987 99.8986 42.708C99.8986 41.9507 100.144 41.364 100.635 40.948C101.136 40.5213 101.877 40.308 102.859 40.308C103.328 40.308 103.755 40.3773 104.139 40.516C104.523 40.6547 104.853 40.852 105.131 41.108C105.408 41.3533 105.611 41.6467 105.739 41.988L104.619 42.484C104.48 42.1213 104.251 41.86 103.931 41.7C103.611 41.54 103.221 41.46 102.763 41.46C102.272 41.46 101.888 41.5667 101.611 41.78C101.333 41.9827 101.195 42.2707 101.195 42.644C101.195 42.8573 101.307 43.06 101.531 43.252C101.765 43.4333 102.107 43.5827 102.555 43.7L103.355 43.908C103.877 44.036 104.315 44.228 104.667 44.484C105.019 44.7293 105.285 45.012 105.467 45.332C105.648 45.652 105.739 45.9933 105.739 46.356C105.739 46.836 105.611 47.252 105.355 47.604C105.099 47.956 104.752 48.228 104.315 48.42C103.877 48.6013 103.376 48.692 102.811 48.692Z" fill="white" fill-opacity="0.8"/>
<rect x="220" width="60" height="60" rx="30" fill="#309689"/>
<mask id="mask0_1_151" style="mask-type:luminance" maskUnits="userSpaceOnUse" x="236" y="16" width="28" height="28">
<path d="M236 16H264V44H236V16Z" fill="white"/>
</mask>
<g mask="url(#mask0_1_151)">
<path d="M260.755 21.3959C260.755 23.7718 258.829 25.6979 256.453 25.6979C254.077 25.6979 252.151 23.7718 252.151 21.3959C252.151 19.0199 254.077 17.0938 256.453 17.0938C258.829 17.0938 260.755 19.0199 260.755 21.3959Z" stroke="white" stroke-width="2" stroke-miterlimit="10" stroke-linecap="round" stroke-linejoin="round"/>
<path d="M252.862 26.7885C253.889 26.0997 255.124 25.6979 256.453 25.6979C260.017 25.6979 262.906 28.587 262.906 32.1508V34.3021H237.094" stroke="white" stroke-width="2" stroke-miterlimit="10" stroke-linecap="round" stroke-linejoin="round"/>
<path d="M247.849 21.3959C247.849 23.7718 245.923 25.6979 243.547 25.6979C241.171 25.6979 239.245 23.7718 239.245 21.3959C239.245 19.0199 241.171 17.0938 243.547 17.0938C245.923 17.0938 247.849 19.0199 247.849 21.3959Z" stroke="white" stroke-width="2" stroke-miterlimit="10" stroke-linecap="round" stroke-linejoin="round"/>
<path d="M237.094 34.3021V32.1508C237.094 28.587 239.983 25.6979 243.547 25.6979C244.876 25.6979 246.111 26.0997 247.138 26.7884" stroke="white" stroke-width="2" stroke-miterlimit="10" stroke-linecap="round" stroke-linejoin="round"/>
<path d="M254.302 30C254.302 32.3759 252.376 34.3021 250 34.3021C247.624 34.3021 245.698 32.3759 245.698 30C245.698 27.624 247.624 25.6979 250 25.6979C252.376 25.6979 254.302 27.624 254.302 30Z" stroke="white" stroke-width="2" stroke-miterlimit="10" stroke-linecap="round" stroke-linejoin="round"/>
<path d="M256.453 42.9062V40.755C256.453 37.1911 253.564 34.3021 250 34.3021C246.437 34.3021 243.547 37.1911 243.547 40.755V42.9062H256.453Z" stroke="white" stroke-width="2" stroke-miterlimit="10" stroke-linecap="round" stroke-linejoin="round"/>
</g>
<path d="M295.9 25.5V12.96L296.16 11.5H298.52L298.5 25.5H295.9ZM292.94 15.92V13.44C293.273 13.4667 293.633 13.3867 294.02 13.2C294.407 13 294.787 12.7467 295.16 12.44C295.547 12.12 295.88 11.8 296.16 11.48L297.9 13.18C297.42 13.7133 296.913 14.2 296.38 14.64C295.847 15.0667 295.293 15.4 294.72 15.64C294.16 15.88 293.567 15.9733 292.94 15.92ZM306.918 25.74C305.784 25.74 304.784 25.4333 303.918 24.82C303.051 24.1933 302.371 23.34 301.878 22.26C301.384 21.1667 301.138 19.9133 301.138 18.5C301.138 17.0867 301.384 15.84 301.878 14.76C302.371 13.6667 303.044 12.8133 303.898 12.2C304.764 11.5733 305.764 11.26 306.898 11.26C308.031 11.26 309.031 11.5733 309.898 12.2C310.778 12.8133 311.464 13.6667 311.958 14.76C312.451 15.84 312.698 17.0867 312.698 18.5C312.698 19.9133 312.451 21.1667 311.958 22.26C311.464 23.34 310.784 24.1933 309.918 24.82C309.051 25.4333 308.051 25.74 306.918 25.74ZM306.918 23.26C307.518 23.26 308.051 23.06 308.518 22.66C308.998 22.2467 309.371 21.6867 309.638 20.98C309.904 20.26 310.038 19.4333 310.038 18.5C310.038 17.5667 309.904 16.74 309.638 16.02C309.371 15.3 308.998 14.74 308.518 14.34C308.051 13.9267 307.511 13.72 306.898 13.72C306.298 13.72 305.764 13.9267 305.298 14.34C304.831 14.74 304.464 15.3 304.198 16.02C303.944 16.74 303.818 17.5667 303.818 18.5C303.818 19.4333 303.944 20.26 304.198 20.98C304.464 21.6867 304.831 22.2467 305.298 22.66C305.778 23.06 306.318 23.26 306.918 23.26ZM313.986 27.78L315.206 23.06H317.946L315.986 27.78H313.986ZM322.243 24.92L319.563 23.48C319.563 23.0933 319.683 22.6667 319.923 22.2C320.163 21.7333 320.496 21.2667 320.923 20.8C321.35 20.3333 321.85 19.9 322.423 19.5L324.543 17.98C324.836 17.78 325.11 17.5533 325.363 17.3C325.63 17.0467 325.843 16.7733 326.003 16.48C326.176 16.1733 326.263 15.88 326.263 15.6C326.263 15.2533 326.176 14.94 326.003 14.66C325.843 14.38 325.603 14.16 325.283 14C324.963 13.84 324.57 13.76 324.103 13.76C323.703 13.76 323.343 13.84 323.023 14C322.716 14.16 322.463 14.3733 322.263 14.64C322.063 14.9067 321.923 15.1933 321.843 15.5L319.023 15.02C319.156 14.3533 319.443 13.7333 319.883 13.16C320.323 12.5867 320.896 12.1267 321.603 11.78C322.323 11.42 323.136 11.24 324.043 11.24C325.083 11.24 325.976 11.4267 326.723 11.8C327.47 12.1733 328.043 12.6867 328.443 13.34C328.856 13.98 329.063 14.7267 329.063 15.58C329.063 16.4467 328.823 17.22 328.343 17.9C327.876 18.5667 327.23 19.1933 326.403 19.78L324.503 21.16C324.116 21.4133 323.75 21.72 323.403 22.08C323.056 22.4267 322.776 22.8333 322.563 23.3C322.35 23.7533 322.243 24.2933 322.243 24.92ZM319.563 25.5V23.48L321.603 23.1H329.243V25.5H319.563ZM335.985 25.74C335.345 25.74 334.685 25.6333 334.005 25.42C333.338 25.2067 332.732 24.8867 332.185 24.46C331.652 24.0333 331.258 23.5067 331.005 22.88L333.505 22.14C333.798 22.5667 334.145 22.88 334.545 23.08C334.958 23.28 335.385 23.38 335.825 23.38C336.518 23.38 337.078 23.1733 337.505 22.76C337.945 22.3333 338.165 21.7667 338.165 21.06C338.165 20.4067 337.952 19.86 337.525 19.42C337.112 18.98 336.558 18.76 335.865 18.76C335.452 18.76 335.072 18.8533 334.725 19.04C334.378 19.2267 334.112 19.4467 333.925 19.7L331.465 19.16L332.305 11.5H340.225V13.98H332.705L332.305 11.58H335.025L333.925 19.42L332.465 19.16C332.585 18.92 332.772 18.66 333.025 18.38C333.278 18.0867 333.592 17.8067 333.965 17.54C334.352 17.2733 334.785 17.06 335.265 16.9C335.745 16.74 336.278 16.6667 336.865 16.68C337.625 16.68 338.318 16.8667 338.945 17.24C339.572 17.6 340.065 18.1 340.425 18.74C340.798 19.3667 340.985 20.1 340.985 20.94C340.985 21.8867 340.772 22.72 340.345 23.44C339.918 24.16 339.332 24.7267 338.585 25.14C337.838 25.54 336.972 25.74 335.985 25.74ZM348.226 25.74C347.093 25.74 346.093 25.4333 345.226 24.82C344.359 24.1933 343.679 23.34 343.186 22.26C342.693 21.1667 342.446 19.9133 342.446 18.5C342.446 17.0867 342.693 15.84 343.186 14.76C343.679 13.6667 344.353 12.8133 345.206 12.2C346.073 11.5733 347.073 11.26 348.206 11.26C349.339 11.26 350.339 11.5733 351.206 12.2C352.086 12.8133 352.773 13.6667 353.266 14.76C353.759 15.84 354.006 17.0867 354.006 18.5C354.006 19.9133 353.759 21.1667 353.266 22.26C352.773 23.34 352.093 24.1933 351.226 24.82C350.359 25.4333 349.359 25.74 348.226 25.74ZM348.226 23.26C348.826 23.26 349.359 23.06 349.826 22.66C350.306 22.2467 350.679 21.6867 350.946 20.98C351.213 20.26 351.346 19.4333 351.346 18.5C351.346 17.5667 351.213 16.74 350.946 16.02C350.679 15.3 350.306 14.74 349.826 14.34C349.359 13.9267 348.819 13.72 348.206 13.72C347.606 13.72 347.073 13.9267 346.606 14.34C346.139 14.74 345.773 15.3 345.506 16.02C345.253 16.74 345.126 17.5667 345.126 18.5C345.126 19.4333 345.253 20.26 345.506 20.98C345.773 21.6867 346.139 22.2467 346.606 22.66C347.086 23.06 347.626 23.26 348.226 23.26Z" fill="white"/>
<path d="M298.208 48.692C297.141 48.692 296.197 48.4467 295.376 47.956C294.555 47.4547 293.909 46.772 293.44 45.908C292.971 45.0333 292.736 44.0307 292.736 42.9C292.736 41.7693 292.965 40.772 293.424 39.908C293.893 39.0333 294.533 38.3507 295.344 37.86C296.165 37.3587 297.104 37.108 298.16 37.108C298.832 37.108 299.477 37.2307 300.096 37.476C300.715 37.7107 301.269 38.0467 301.76 38.484C302.251 38.9107 302.629 39.4067 302.896 39.972L301.728 40.564C301.515 40.116 301.221 39.7267 300.848 39.396C300.475 39.0653 300.059 38.8093 299.6 38.628C299.141 38.436 298.661 38.34 298.16 38.34C297.381 38.34 296.683 38.5373 296.064 38.932C295.445 39.316 294.96 39.8493 294.608 40.532C294.267 41.2147 294.096 42.004 294.096 42.9C294.096 43.796 294.272 44.5907 294.624 45.284C294.976 45.9773 295.461 46.5213 296.08 46.916C296.709 47.3 297.419 47.492 298.208 47.492C298.72 47.492 299.205 47.3907 299.664 47.188C300.123 46.9747 300.533 46.6867 300.896 46.324C301.269 45.9613 301.563 45.5453 301.776 45.076L302.96 45.668C302.683 46.2547 302.299 46.7773 301.808 47.236C301.328 47.6947 300.773 48.052 300.144 48.308C299.525 48.564 298.88 48.692 298.208 48.692ZM309.579 48.5L309.499 47.188V44.276C309.499 43.6467 309.425 43.1293 309.275 42.724C309.137 42.308 308.918 41.9987 308.619 41.796C308.331 41.5827 307.947 41.476 307.467 41.476C307.009 41.476 306.609 41.5667 306.267 41.748C305.937 41.9293 305.665 42.212 305.451 42.596L304.299 42.132C304.513 41.7587 304.769 41.4333 305.067 41.156C305.366 40.8787 305.713 40.6707 306.107 40.532C306.513 40.3827 306.971 40.308 307.483 40.308C308.219 40.308 308.833 40.452 309.323 40.74C309.814 41.028 310.182 41.46 310.427 42.036C310.673 42.6013 310.79 43.3107 310.779 44.164L310.763 48.5H309.579ZM307.179 48.692C306.241 48.692 305.505 48.4787 304.971 48.052C304.449 47.6147 304.187 47.012 304.187 46.244C304.187 45.4333 304.454 44.8147 304.987 44.388C305.531 43.9507 306.289 43.732 307.259 43.732H309.547V44.804H307.547C306.801 44.804 306.267 44.9267 305.947 45.172C305.638 45.4173 305.483 45.7693 305.483 46.228C305.483 46.644 305.638 46.9747 305.947 47.22C306.257 47.4547 306.689 47.572 307.243 47.572C307.702 47.572 308.102 47.4653 308.443 47.252C308.785 47.0387 309.046 46.7507 309.227 46.388C309.409 46.0147 309.499 45.5933 309.499 45.124H310.283C310.283 46.212 310.017 47.0813 309.483 47.732C308.95 48.372 308.182 48.692 307.179 48.692ZM312.808 48.5V40.5H314.008L314.088 41.972V48.5H312.808ZM318.424 48.5V44.404L319.704 43.924V48.5H318.424ZM318.424 44.404C318.424 43.6147 318.333 43.012 318.152 42.596C317.97 42.18 317.72 41.8973 317.4 41.748C317.08 41.588 316.717 41.508 316.312 41.508C315.608 41.508 315.058 41.7587 314.664 42.26C314.28 42.7507 314.088 43.4493 314.088 44.356H313.464C313.464 43.5133 313.586 42.788 313.832 42.18C314.077 41.572 314.429 41.108 314.888 40.788C315.357 40.468 315.922 40.308 316.584 40.308C317.554 40.308 318.317 40.6067 318.872 41.204C319.437 41.8013 319.714 42.708 319.704 43.924L318.424 44.404ZM327.649 48.5L327.585 47.012V37.3H328.865V48.5H327.649ZM324.881 48.692C324.167 48.692 323.537 48.516 322.993 48.164C322.449 47.812 322.023 47.3213 321.713 46.692C321.415 46.052 321.265 45.3213 321.265 44.5C321.265 43.668 321.415 42.9373 321.713 42.308C322.023 41.6787 322.449 41.188 322.993 40.836C323.537 40.484 324.167 40.308 324.881 40.308C325.553 40.308 326.14 40.484 326.641 40.836C327.153 41.188 327.548 41.6787 327.825 42.308C328.103 42.9373 328.241 43.668 328.241 44.5C328.241 45.3213 328.103 46.052 327.825 46.692C327.548 47.3213 327.153 47.812 326.641 48.164C326.14 48.516 325.553 48.692 324.881 48.692ZM325.169 47.524C325.639 47.524 326.055 47.396 326.417 47.14C326.78 46.884 327.063 46.5267 327.265 46.068C327.479 45.6093 327.585 45.0867 327.585 44.5C327.585 43.9133 327.479 43.3907 327.265 42.932C327.063 42.4733 326.78 42.116 326.417 41.86C326.055 41.604 325.633 41.476 325.153 41.476C324.652 41.476 324.204 41.604 323.809 41.86C323.425 42.116 323.121 42.4733 322.897 42.932C322.673 43.3907 322.561 43.9133 322.561 44.5C322.561 45.0867 322.673 45.6093 322.897 46.068C323.121 46.5267 323.431 46.884 323.825 47.14C324.22 47.396 324.668 47.524 325.169 47.524ZM331.184 48.5L331.216 40.5H332.496L332.464 48.5H331.184ZM331.84 38.644C331.627 38.644 331.44 38.564 331.28 38.404C331.12 38.244 331.04 38.0573 331.04 37.844C331.04 37.62 331.12 37.4333 331.28 37.284C331.44 37.124 331.627 37.044 331.84 37.044C332.064 37.044 332.251 37.124 332.4 37.284C332.56 37.4333 332.64 37.62 332.64 37.844C332.64 38.0573 332.56 38.244 332.4 38.404C332.251 38.564 332.064 38.644 331.84 38.644ZM340.743 48.5L340.679 47.012V37.3H341.959V48.5H340.743ZM337.975 48.692C337.26 48.692 336.631 48.516 336.087 48.164C335.543 47.812 335.116 47.3213 334.807 46.692C334.508 46.052 334.359 45.3213 334.359 44.5C334.359 43.668 334.508 42.9373 334.807 42.308C335.116 41.6787 335.543 41.188 336.087 40.836C336.631 40.484 337.26 40.308 337.975 40.308C338.647 40.308 339.234 40.484 339.735 40.836C340.247 41.188 340.642 41.6787 340.919 42.308C341.196 42.9373 341.335 43.668 341.335 44.5C341.335 45.3213 341.196 46.052 340.919 46.692C340.642 47.3213 340.247 47.812 339.735 48.164C339.234 48.516 338.647 48.692 337.975 48.692ZM338.263 47.524C338.732 47.524 339.148 47.396 339.511 47.14C339.874 46.884 340.156 46.5267 340.359 46.068C340.572 45.6093 340.679 45.0867 340.679 44.5C340.679 43.9133 340.572 43.3907 340.359 42.932C340.156 42.4733 339.874 42.116 339.511 41.86C339.148 41.604 338.727 41.476 338.247 41.476C337.746 41.476 337.298 41.604 336.903 41.86C336.519 42.116 336.215 42.4733 335.991 42.932C335.767 43.3907 335.655 43.9133 335.655 44.5C335.655 45.0867 335.767 45.6093 335.991 46.068C336.215 46.5267 336.524 46.884 336.919 47.14C337.314 47.396 337.762 47.524 338.263 47.524ZM349.126 48.5L349.046 47.188V44.276C349.046 43.6467 348.971 43.1293 348.822 42.724C348.683 42.308 348.465 41.9987 348.166 41.796C347.878 41.5827 347.494 41.476 347.014 41.476C346.555 41.476 346.155 41.5667 345.814 41.748C345.483 41.9293 345.211 42.212 344.998 42.596L343.846 42.132C344.059 41.7587 344.315 41.4333 344.614 41.156C344.913 40.8787 345.259 40.6707 345.654 40.532C346.059 40.3827 346.518 40.308 347.03 40.308C347.766 40.308 348.379 40.452 348.87 40.74C349.361 41.028 349.729 41.46 349.974 42.036C350.219 42.6013 350.337 43.3107 350.326 44.164L350.31 48.5H349.126ZM346.726 48.692C345.787 48.692 345.051 48.4787 344.518 48.052C343.995 47.6147 343.734 47.012 343.734 46.244C343.734 45.4333 344.001 44.8147 344.534 44.388C345.078 43.9507 345.835 43.732 346.806 43.732H349.094V44.804H347.094C346.347 44.804 345.814 44.9267 345.494 45.172C345.185 45.4173 345.03 45.7693 345.03 46.228C345.03 46.644 345.185 46.9747 345.494 47.22C345.803 47.4547 346.235 47.572 346.79 47.572C347.249 47.572 347.649 47.4653 347.99 47.252C348.331 47.0387 348.593 46.7507 348.774 46.388C348.955 46.0147 349.046 45.5933 349.046 45.124H349.83C349.83 46.212 349.563 47.0813 349.03 47.732C348.497 48.372 347.729 48.692 346.726 48.692ZM355.362 48.692C354.584 48.692 353.981 48.4893 353.554 48.084C353.128 47.6787 352.914 47.108 352.914 46.372V38.004H354.194V46.244C354.194 46.6493 354.301 46.964 354.514 47.188C354.738 47.4013 355.048 47.508 355.442 47.508C355.57 47.508 355.693 47.492 355.81 47.46C355.938 47.4173 356.104 47.3213 356.306 47.172L356.802 48.212C356.525 48.3933 356.274 48.516 356.05 48.58C355.826 48.6547 355.597 48.692 355.362 48.692ZM351.522 41.636V40.5H356.594V41.636H351.522ZM361.858 48.692C361.08 48.692 360.392 48.516 359.794 48.164C359.197 47.8013 358.728 47.3053 358.386 46.676C358.056 46.0467 357.89 45.3213 357.89 44.5C357.89 43.6787 358.056 42.9533 358.386 42.324C358.728 41.6947 359.192 41.204 359.778 40.852C360.376 40.4893 361.058 40.308 361.826 40.308C362.562 40.308 363.202 40.4947 363.746 40.868C364.301 41.2307 364.728 41.7427 365.026 42.404C365.325 43.0653 365.474 43.844 365.474 44.74H364.194C364.194 44.0573 364.104 43.476 363.922 42.996C363.741 42.5053 363.469 42.1267 363.106 41.86C362.754 41.5933 362.322 41.46 361.81 41.46C361.288 41.46 360.824 41.588 360.418 41.844C360.024 42.0893 359.72 42.4413 359.506 42.9C359.293 43.3587 359.186 43.8973 359.186 44.516C359.186 45.124 359.304 45.652 359.538 46.1C359.773 46.5373 360.098 46.884 360.514 47.14C360.93 47.3853 361.4 47.508 361.922 47.508C362.477 47.508 362.946 47.3747 363.33 47.108C363.714 46.8413 364.018 46.4947 364.242 46.068L365.362 46.628C365.16 47.044 364.888 47.4067 364.546 47.716C364.216 48.0253 363.821 48.2653 363.362 48.436C362.914 48.6067 362.413 48.692 361.858 48.692ZM358.738 44.74L358.754 43.636H364.69V44.74H358.738ZM369.889 48.692C369.302 48.692 368.79 48.6067 368.353 48.436C367.915 48.2547 367.547 48.02 367.249 47.732C366.961 47.444 366.753 47.1293 366.625 46.788L367.745 46.324C367.926 46.6867 368.198 46.98 368.561 47.204C368.923 47.428 369.323 47.54 369.761 47.54C370.262 47.54 370.683 47.444 371.025 47.252C371.366 47.0493 371.537 46.7667 371.537 46.404C371.537 46.0733 371.409 45.8067 371.153 45.604C370.907 45.4013 370.539 45.236 370.049 45.108L369.281 44.9C368.555 44.708 367.99 44.42 367.585 44.036C367.179 43.6413 366.977 43.1987 366.977 42.708C366.977 41.9507 367.222 41.364 367.713 40.948C368.214 40.5213 368.955 40.308 369.937 40.308C370.406 40.308 370.833 40.3773 371.217 40.516C371.601 40.6547 371.931 40.852 372.209 41.108C372.486 41.3533 372.689 41.6467 372.817 41.988L371.697 42.484C371.558 42.1213 371.329 41.86 371.009 41.7C370.689 41.54 370.299 41.46 369.841 41.46C369.35 41.46 368.966 41.5667 368.689 41.78C368.411 41.9827 368.273 42.2707 368.273 42.644C368.273 42.8573 368.385 43.06 368.609 43.252C368.843 43.4333 369.185 43.5827 369.633 43.7L370.433 43.908C370.955 44.036 371.393 44.228 371.745 44.484C372.097 44.7293 372.363 45.012 372.545 45.332C372.726 45.652 372.817 45.9933 372.817 46.356C372.817 46.836 372.689 47.252 372.433 47.604C372.177 47.956 371.83 48.228 371.393 48.42C370.955 48.6013 370.454 48.692 369.889 48.692Z" fill="white" fill-opacity="0.8"/>
<rect x="440" width="60" height="60" rx="30" fill="#309689"/>
<g clip-path="url(#clip1_1_151)">
<mask id="mask1_1_151" style="mask-type:luminance" maskUnits="userSpaceOnUse" x="456" y="16" width="28" height="28">
<path d="M484 16H456V44H484V16Z" fill="white"/>
</mask>
<g mask="url(#mask1_1_151)">
<mask id="mask2_1_151" style="mask-type:luminance" maskUnits="userSpaceOnUse" x="456" y="16" width="28" height="28">
<path d="M456 16H484V44H456V16Z" fill="white"/>
</mask>
<g mask="url(#mask2_1_151)">
<path d="M483.18 43.1797H456.82V41.5877C456.82 40.0559 458.062 38.8142 459.594 38.8142H480.406C481.938 38.8142 483.18 40.0559 483.18 41.5877V43.1797Z" stroke="white" stroke-width="2" stroke-miterlimit="10"/>
<path d="M467.543 21.7422V16.8203H480.377V38.8142H467.543" stroke="white" stroke-width="2" stroke-miterlimit="10"/>
<path d="M459.623 21.8334H472.457V38.8143H459.623V21.8334Z" stroke="white" stroke-width="2" stroke-miterlimit="10"/>
<path d="M463.999 25.5842V29.0842" stroke="white" stroke-width="2" stroke-miterlimit="10"/>
<path d="M468.082 25.5842V29.0842" stroke="white" stroke-width="2" stroke-miterlimit="10"/>
<path d="M463.999 31.7821V35.2821" stroke="white" stroke-width="2" stroke-miterlimit="10"/>
<path d="M468.082 31.7821V35.2821" stroke="white" stroke-width="2" stroke-miterlimit="10"/>
<path d="M476.001 25.5842V29.0842" stroke="white" stroke-width="2" stroke-miterlimit="10"/>
<path d="M476.001 31.7821V35.2821" stroke="white" stroke-width="2" stroke-miterlimit="10"/>
<path d="M476.001 19.3863V22.8863" stroke="white" stroke-width="2" stroke-miterlimit="10"/>
</g>
</g>
</g>
<path d="M515.9 25.5V12.96L516.16 11.5H518.52L518.5 25.5H515.9ZM512.94 15.92V13.44C513.273 13.4667 513.633 13.3867 514.02 13.2C514.407 13 514.787 12.7467 515.16 12.44C515.547 12.12 515.88 11.8 516.16 11.48L517.9 13.18C517.42 13.7133 516.913 14.2 516.38 14.64C515.847 15.0667 515.293 15.4 514.72 15.64C514.16 15.88 513.567 15.9733 512.94 15.92ZM526.538 25.74C525.418 25.74 524.464 25.58 523.678 25.26C522.891 24.9267 522.291 24.4733 521.878 23.9C521.478 23.3133 521.278 22.6333 521.278 21.86C521.278 21.0333 521.478 20.3067 521.878 19.68C522.291 19.0533 522.891 18.56 523.678 18.2C524.464 17.84 525.418 17.6667 526.538 17.68C527.671 17.6667 528.631 17.84 529.418 18.2C530.204 18.56 530.804 19.0533 531.218 19.68C531.631 20.3067 531.838 21.0333 531.838 21.86C531.838 22.6333 531.631 23.3133 531.218 23.9C530.804 24.4733 530.204 24.9267 529.418 25.26C528.631 25.58 527.671 25.74 526.538 25.74ZM526.538 23.46C527.271 23.46 527.871 23.28 528.338 22.92C528.804 22.5467 529.038 22.0733 529.038 21.5C529.038 20.8733 528.804 20.3667 528.338 19.98C527.871 19.5933 527.271 19.4 526.538 19.4C526.058 19.4 525.631 19.4867 525.258 19.66C524.898 19.8333 524.611 20.08 524.398 20.4C524.184 20.72 524.078 21.0867 524.078 21.5C524.078 21.8867 524.184 22.2267 524.398 22.52C524.611 22.8133 524.898 23.0467 525.258 23.22C525.631 23.38 526.058 23.46 526.538 23.46ZM526.538 18.76C525.538 18.76 524.678 18.6067 523.958 18.3C523.238 17.98 522.684 17.5467 522.298 17C521.924 16.44 521.738 15.7933 521.738 15.06C521.738 14.3133 521.924 13.6533 522.298 13.08C522.684 12.5067 523.238 12.06 523.958 11.74C524.678 11.42 525.538 11.26 526.538 11.26C527.551 11.26 528.418 11.42 529.138 11.74C529.858 12.06 530.411 12.5067 530.798 13.08C531.184 13.6533 531.378 14.3133 531.378 15.06C531.378 15.7933 531.184 16.44 530.798 17C530.411 17.5467 529.858 17.98 529.138 18.3C528.418 18.6067 527.551 18.76 526.538 18.76ZM526.538 17.22C527.178 17.22 527.698 17.0467 528.098 16.7C528.511 16.3533 528.718 15.9133 528.718 15.38C528.718 14.8067 528.511 14.3467 528.098 14C527.698 13.64 527.178 13.46 526.538 13.46C525.911 13.46 525.398 13.64 524.998 14C524.598 14.3467 524.398 14.8067 524.398 15.38C524.398 15.9133 524.598 16.3533 524.998 16.7C525.398 17.0467 525.911 17.22 526.538 17.22ZM533.264 27.78L534.484 23.06H537.224L535.264 27.78H533.264ZM540.32 21.64L538.34 20.56L544.54 11.5L546.18 13.04L540.32 21.64ZM538.34 22.74V20.56L539.88 20.4H549.88V22.74H538.34ZM544.86 25.5V13L544.56 11.5H547.44V25.5H544.86ZM556.957 25.74C555.823 25.74 554.823 25.4333 553.957 24.82C553.09 24.1933 552.41 23.34 551.917 22.26C551.423 21.1667 551.177 19.9133 551.177 18.5C551.177 17.0867 551.423 15.84 551.917 14.76C552.41 13.6667 553.083 12.8133 553.937 12.2C554.803 11.5733 555.803 11.26 556.937 11.26C558.07 11.26 559.07 11.5733 559.937 12.2C560.817 12.8133 561.503 13.6667 561.997 14.76C562.49 15.84 562.737 17.0867 562.737 18.5C562.737 19.9133 562.49 21.1667 561.997 22.26C561.503 23.34 560.823 24.1933 559.957 24.82C559.09 25.4333 558.09 25.74 556.957 25.74ZM556.957 23.26C557.557 23.26 558.09 23.06 558.557 22.66C559.037 22.2467 559.41 21.6867 559.677 20.98C559.943 20.26 560.077 19.4333 560.077 18.5C560.077 17.5667 559.943 16.74 559.677 16.02C559.41 15.3 559.037 14.74 558.557 14.34C558.09 13.9267 557.55 13.72 556.937 13.72C556.337 13.72 555.803 13.9267 555.337 14.34C554.87 14.74 554.503 15.3 554.237 16.02C553.983 16.74 553.857 17.5667 553.857 18.5C553.857 19.4333 553.983 20.26 554.237 20.98C554.503 21.6867 554.87 22.2467 555.337 22.66C555.817 23.06 556.357 23.26 556.957 23.26ZM569.925 25.74C568.792 25.74 567.792 25.4333 566.925 24.82C566.059 24.1933 565.379 23.34 564.885 22.26C564.392 21.1667 564.145 19.9133 564.145 18.5C564.145 17.0867 564.392 15.84 564.885 14.76C565.379 13.6667 566.052 12.8133 566.905 12.2C567.772 11.5733 568.772 11.26 569.905 11.26C571.039 11.26 572.039 11.5733 572.905 12.2C573.785 12.8133 574.472 13.6667 574.965 14.76C575.459 15.84 575.705 17.0867 575.705 18.5C575.705 19.9133 575.459 21.1667 574.965 22.26C574.472 23.34 573.792 24.1933 572.925 24.82C572.059 25.4333 571.059 25.74 569.925 25.74ZM569.925 23.26C570.525 23.26 571.059 23.06 571.525 22.66C572.005 22.2467 572.379 21.6867 572.645 20.98C572.912 20.26 573.045 19.4333 573.045 18.5C573.045 17.5667 572.912 16.74 572.645 16.02C572.379 15.3 572.005 14.74 571.525 14.34C571.059 13.9267 570.519 13.72 569.905 13.72C569.305 13.72 568.772 13.9267 568.305 14.34C567.839 14.74 567.472 15.3 567.205 16.02C566.952 16.74 566.825 17.5667 566.825 18.5C566.825 19.4333 566.952 20.26 567.205 20.98C567.472 21.6867 567.839 22.2467 568.305 22.66C568.785 23.06 569.325 23.26 569.925 23.26Z" fill="white"/>
<path d="M518.208 48.692C517.141 48.692 516.197 48.4467 515.376 47.956C514.555 47.4547 513.909 46.772 513.44 45.908C512.971 45.0333 512.736 44.0307 512.736 42.9C512.736 41.7693 512.965 40.772 513.424 39.908C513.893 39.0333 514.533 38.3507 515.344 37.86C516.165 37.3587 517.104 37.108 518.16 37.108C518.832 37.108 519.477 37.2307 520.096 37.476C520.715 37.7107 521.269 38.0467 521.76 38.484C522.251 38.9107 522.629 39.4067 522.896 39.972L521.728 40.564C521.515 40.116 521.221 39.7267 520.848 39.396C520.475 39.0653 520.059 38.8093 519.6 38.628C519.141 38.436 518.661 38.34 518.16 38.34C517.381 38.34 516.683 38.5373 516.064 38.932C515.445 39.316 514.96 39.8493 514.608 40.532C514.267 41.2147 514.096 42.004 514.096 42.9C514.096 43.796 514.272 44.5907 514.624 45.284C514.976 45.9773 515.461 46.5213 516.08 46.916C516.709 47.3 517.419 47.492 518.208 47.492C518.72 47.492 519.205 47.3907 519.664 47.188C520.123 46.9747 520.533 46.6867 520.896 46.324C521.269 45.9613 521.563 45.5453 521.776 45.076L522.96 45.668C522.683 46.2547 522.299 46.7773 521.808 47.236C521.328 47.6947 520.773 48.052 520.144 48.308C519.525 48.564 518.88 48.692 518.208 48.692ZM528.187 48.692C527.409 48.692 526.715 48.516 526.107 48.164C525.51 47.8013 525.041 47.3053 524.699 46.676C524.358 46.0467 524.187 45.3213 524.187 44.5C524.187 43.6787 524.353 42.9533 524.683 42.324C525.025 41.6947 525.494 41.204 526.091 40.852C526.699 40.4893 527.387 40.308 528.155 40.308C528.945 40.308 529.638 40.4893 530.235 40.852C530.843 41.204 531.313 41.6947 531.643 42.324C531.985 42.9533 532.155 43.6787 532.155 44.5C532.155 45.3213 531.985 46.0467 531.643 46.676C531.313 47.3053 530.849 47.8013 530.251 48.164C529.654 48.516 528.966 48.692 528.187 48.692ZM528.187 47.508C528.721 47.508 529.185 47.38 529.579 47.124C529.974 46.868 530.283 46.516 530.507 46.068C530.742 45.62 530.859 45.0973 530.859 44.5C530.859 43.9027 530.742 43.38 530.507 42.932C530.283 42.484 529.969 42.132 529.563 41.876C529.158 41.62 528.689 41.492 528.155 41.492C527.633 41.492 527.169 41.62 526.763 41.876C526.369 42.132 526.054 42.484 525.819 42.932C525.595 43.38 525.483 43.9027 525.483 44.5C525.483 45.0867 525.595 45.6093 525.819 46.068C526.054 46.516 526.374 46.868 526.779 47.124C527.195 47.38 527.665 47.508 528.187 47.508ZM533.933 48.5V40.5H535.133L535.213 41.972V48.5H533.933ZM539.549 48.5V44.404L540.829 43.924V48.5H539.549ZM545.181 48.5V44.404L546.461 43.924V48.5H545.181ZM539.549 44.404C539.549 43.6147 539.458 43.012 539.277 42.596C539.095 42.18 538.845 41.8973 538.525 41.748C538.205 41.588 537.842 41.508 537.437 41.508C536.733 41.508 536.183 41.7587 535.789 42.26C535.405 42.7507 535.213 43.4493 535.213 44.356H534.589C534.589 43.5133 534.711 42.788 534.957 42.18C535.202 41.572 535.554 41.108 536.013 40.788C536.482 40.468 537.047 40.308 537.709 40.308C538.679 40.308 539.442 40.6067 539.997 41.204C540.562 41.8013 540.839 42.708 540.829 43.924L539.549 44.404ZM545.181 44.404C545.181 43.6147 545.085 43.012 544.893 42.596C544.711 42.18 544.461 41.8973 544.141 41.748C543.821 41.588 543.458 41.508 543.053 41.508C542.349 41.508 541.799 41.7587 541.405 42.26C541.021 42.7507 540.829 43.4493 540.829 44.356H540.205C540.205 43.5133 540.327 42.788 540.573 42.18C540.818 41.572 541.175 41.108 541.645 40.788C542.114 40.468 542.679 40.308 543.341 40.308C544.301 40.308 545.058 40.6067 545.613 41.204C546.178 41.8013 546.461 42.708 546.461 43.924L545.181 44.404ZM548.559 51.7V40.5H549.759L549.839 41.972V51.7H548.559ZM552.543 48.692C551.871 48.692 551.279 48.516 550.767 48.164C550.266 47.812 549.877 47.3213 549.599 46.692C549.322 46.052 549.183 45.3213 549.183 44.5C549.183 43.668 549.322 42.9373 549.599 42.308C549.877 41.6787 550.266 41.188 550.767 40.836C551.279 40.484 551.871 40.308 552.543 40.308C553.258 40.308 553.887 40.484 554.431 40.836C554.975 41.188 555.397 41.6787 555.695 42.308C556.005 42.9373 556.159 43.668 556.159 44.5C556.159 45.3213 556.005 46.052 555.695 46.692C555.397 47.3213 554.975 47.812 554.431 48.164C553.887 48.516 553.258 48.692 552.543 48.692ZM552.255 47.524C552.757 47.524 553.199 47.396 553.583 47.14C553.978 46.884 554.287 46.5267 554.511 46.068C554.746 45.6093 554.863 45.0867 554.863 44.5C554.863 43.9133 554.751 43.3907 554.527 42.932C554.314 42.4733 554.01 42.116 553.615 41.86C553.221 41.604 552.773 41.476 552.271 41.476C551.802 41.476 551.381 41.604 551.007 41.86C550.645 42.116 550.357 42.4733 550.143 42.932C549.941 43.3907 549.839 43.9133 549.839 44.5C549.839 45.0867 549.941 45.6093 550.143 46.068C550.357 46.5267 550.645 46.884 551.007 47.14C551.37 47.396 551.786 47.524 552.255 47.524ZM562.861 48.5L562.781 47.188V44.276C562.781 43.6467 562.706 43.1293 562.557 42.724C562.418 42.308 562.199 41.9987 561.901 41.796C561.613 41.5827 561.229 41.476 560.749 41.476C560.29 41.476 559.89 41.5667 559.549 41.748C559.218 41.9293 558.946 42.212 558.733 42.596L557.581 42.132C557.794 41.7587 558.05 41.4333 558.349 41.156C558.647 40.8787 558.994 40.6707 559.389 40.532C559.794 40.3827 560.253 40.308 560.765 40.308C561.501 40.308 562.114 40.452 562.605 40.74C563.095 41.028 563.463 41.46 563.709 42.036C563.954 42.6013 564.071 43.3107 564.061 44.164L564.045 48.5H562.861ZM560.461 48.692C559.522 48.692 558.786 48.4787 558.253 48.052C557.73 47.6147 557.469 47.012 557.469 46.244C557.469 45.4333 557.735 44.8147 558.269 44.388C558.813 43.9507 559.57 43.732 560.541 43.732H562.829V44.804H560.829C560.082 44.804 559.549 44.9267 559.229 45.172C558.919 45.4173 558.765 45.7693 558.765 46.228C558.765 46.644 558.919 46.9747 559.229 47.22C559.538 47.4547 559.97 47.572 560.525 47.572C560.983 47.572 561.383 47.4653 561.725 47.252C562.066 47.0387 562.327 46.7507 562.509 46.388C562.69 46.0147 562.781 45.5933 562.781 45.124H563.565C563.565 46.212 563.298 47.0813 562.765 47.732C562.231 48.372 561.463 48.692 560.461 48.692ZM566.089 48.5V40.5H567.289L567.369 41.972V48.5H566.089ZM571.705 48.5V44.404L572.985 43.924V48.5H571.705ZM571.705 44.404C571.705 43.6147 571.614 43.012 571.433 42.596C571.251 42.18 571.001 41.8973 570.681 41.748C570.361 41.588 569.998 41.508 569.593 41.508C568.889 41.508 568.339 41.7587 567.945 42.26C567.561 42.7507 567.369 43.4493 567.369 44.356H566.745C566.745 43.5133 566.867 42.788 567.113 42.18C567.358 41.572 567.71 41.108 568.169 40.788C568.638 40.468 569.203 40.308 569.865 40.308C570.835 40.308 571.598 40.6067 572.153 41.204C572.718 41.8013 572.995 42.708 572.985 43.924L571.705 44.404ZM575.091 48.5L575.123 40.5H576.403L576.371 48.5H575.091ZM575.747 38.644C575.533 38.644 575.347 38.564 575.187 38.404C575.027 38.244 574.947 38.0573 574.947 37.844C574.947 37.62 575.027 37.4333 575.187 37.284C575.347 37.124 575.533 37.044 575.747 37.044C575.971 37.044 576.157 37.124 576.307 37.284C576.467 37.4333 576.547 37.62 576.547 37.844C576.547 38.0573 576.467 38.244 576.307 38.404C576.157 38.564 575.971 38.644 575.747 38.644ZM582.233 48.692C581.455 48.692 580.767 48.516 580.169 48.164C579.572 47.8013 579.103 47.3053 578.761 46.676C578.431 46.0467 578.265 45.3213 578.265 44.5C578.265 43.6787 578.431 42.9533 578.761 42.324C579.103 41.6947 579.567 41.204 580.153 40.852C580.751 40.4893 581.433 40.308 582.201 40.308C582.937 40.308 583.577 40.4947 584.121 40.868C584.676 41.2307 585.103 41.7427 585.401 42.404C585.7 43.0653 585.849 43.844 585.849 44.74H584.569C584.569 44.0573 584.479 43.476 584.297 42.996C584.116 42.5053 583.844 42.1267 583.481 41.86C583.129 41.5933 582.697 41.46 582.185 41.46C581.663 41.46 581.199 41.588 580.793 41.844C580.399 42.0893 580.095 42.4413 579.881 42.9C579.668 43.3587 579.561 43.8973 579.561 44.516C579.561 45.124 579.679 45.652 579.913 46.1C580.148 46.5373 580.473 46.884 580.889 47.14C581.305 47.3853 581.775 47.508 582.297 47.508C582.852 47.508 583.321 47.3747 583.705 47.108C584.089 46.8413 584.393 46.4947 584.617 46.068L585.737 46.628C585.535 47.044 585.263 47.4067 584.921 47.716C584.591 48.0253 584.196 48.2653 583.737 48.436C583.289 48.6067 582.788 48.692 582.233 48.692ZM579.113 44.74L579.129 43.636H585.065V44.74H579.113ZM590.264 48.692C589.677 48.692 589.165 48.6067 588.728 48.436C588.29 48.2547 587.922 48.02 587.624 47.732C587.336 47.444 587.128 47.1293 587 46.788L588.12 46.324C588.301 46.6867 588.573 46.98 588.936 47.204C589.298 47.428 589.698 47.54 590.136 47.54C590.637 47.54 591.058 47.444 591.4 47.252C591.741 47.0493 591.912 46.7667 591.912 46.404C591.912 46.0733 591.784 45.8067 591.528 45.604C591.282 45.4013 590.914 45.236 590.424 45.108L589.656 44.9C588.93 44.708 588.365 44.42 587.96 44.036C587.554 43.6413 587.352 43.1987 587.352 42.708C587.352 41.9507 587.597 41.364 588.088 40.948C588.589 40.5213 589.33 40.308 590.312 40.308C590.781 40.308 591.208 40.3773 591.592 40.516C591.976 40.6547 592.306 40.852 592.584 41.108C592.861 41.3533 593.064 41.6467 593.192 41.988L592.072 42.484C591.933 42.1213 591.704 41.86 591.384 41.7C591.064 41.54 590.674 41.46 590.216 41.46C589.725 41.46 589.341 41.5667 589.064 41.78C588.786 41.9827 588.648 42.2707 588.648 42.644C588.648 42.8573 588.76 43.06 588.984 43.252C589.218 43.4333 589.56 43.5827 590.008 43.7L590.808 43.908C591.33 44.036 591.768 44.228 592.12 44.484C592.472 44.7293 592.738 45.012 592.92 45.332C593.101 45.652 593.192 45.9933 593.192 46.356C593.192 46.836 593.064 47.252 592.808 47.604C592.552 47.956 592.205 48.228 591.768 48.42C591.33 48.6013 590.829 48.692 590.264 48.692Z" fill="white" fill-opacity="0.8"/>
<defs>
<clipPath id="clip0_1_151">
<rect width="28" height="28" fill="white" transform="translate(16 16)"/>
</clipPath>
<clipPath id="clip1_1_151">
<rect width="28" height="28" fill="white" transform="translate(456 16)"/>
</clipPath>
</defs>
</svg>
